<svg width="26" height="27" viewBox="0 0 26 27" fill="none" xmlns="http://www.w3.org/2000/svg">
<path fill-rule="evenodd" clip-rule="evenodd" d="M17.2446 9.29079C17.5537 9.59182 17.5603 10.0864 17.2593 10.3955L9.99194 17.8583C9.69102 18.1674 9.19637 18.174 8.88725 17.873C8.57812 17.572 8.57155 17.0774 8.87258 16.7682L16.1398 9.30545C16.4409 8.99633 16.9355 8.98976 17.2446 9.29079Z" fill="#6F3DFD"/>
<path fill-rule="evenodd" clip-rule="evenodd" d="M16.0438 10.2724L10.6148 10.4912C10.1837 10.5086 9.82012 10.1732 9.80273 9.74204C9.78534 9.31098 10.1208 8.94733 10.5518 8.92994L16.0106 8.70996L16.0211 8.70982C16.8945 8.69823 17.622 9.40666 17.6336 10.28L17.6337 10.2904L17.6333 15.8152C17.6333 16.2466 17.2835 16.5964 16.852 16.5964C16.4206 16.5963 16.0708 16.2465 16.0708 15.8151L16.0712 10.2999C16.0709 10.2976 16.0692 10.291 16.0604 10.2825C16.0527 10.275 16.0467 10.273 16.0438 10.2724V10.2724Z" fill="#6F3DFD"/>
</svg>
