<svg width="26" height="26" viewBox="0 0 26 26" fill="none" xmlns="http://www.w3.org/2000/svg">
<path fill-rule="evenodd" clip-rule="evenodd" d="M16.9091 8.45583C17.2183 8.75686 17.2248 9.2514 16.9238 9.56052L9.65649 17.0234C9.35557 17.3325 8.86092 17.3391 8.5518 17.038C8.24267 16.737 8.2361 16.2424 8.53713 15.9333L15.8044 8.47049C16.1054 8.16137 16.6 8.1548 16.9091 8.45583Z" fill="#4D4D4D"/>
<path fill-rule="evenodd" clip-rule="evenodd" d="M15.7083 9.43741L10.2794 9.65626C9.84822 9.67365 9.48467 9.33824 9.46728 8.90708C9.44989 8.47602 9.7853 8.11237 10.2164 8.09498L15.6751 7.875L15.6857 7.87486C16.559 7.86327 17.2865 8.5717 17.2981 9.44506L17.2983 9.45547L17.2979 14.9802C17.2979 15.4117 16.9481 15.7614 16.5166 15.7614C16.0851 15.7614 15.7354 15.4116 15.7354 14.9801L15.7357 9.46496C15.7354 9.46268 15.7338 9.45603 15.725 9.4475C15.7173 9.44 15.7113 9.43799 15.7083 9.43741V9.43741Z" fill="#4D4D4D"/>
</svg>
