<svg width="26" height="26" viewBox="0 0 26 26" fill="none" xmlns="http://www.w3.org/2000/svg">
<path fill-rule="evenodd" clip-rule="evenodd" d="M16.9106 8.45534C17.2197 8.75637 17.2263 9.25091 16.9253 9.56003L9.65795 17.0229C9.35703 17.332 8.86239 17.3386 8.55326 17.0375C8.24413 16.7365 8.23757 16.2419 8.5386 15.9328L15.8059 8.47001C16.1069 8.16088 16.6015 8.15431 16.9106 8.45534Z" fill="white"/>
<path fill-rule="evenodd" clip-rule="evenodd" d="M15.7103 9.43692L10.2813 9.65577C9.85017 9.67316 9.48662 9.33775 9.46923 8.90659C9.45184 8.47553 9.78725 8.11188 10.2183 8.09449L15.6771 7.87452L15.6876 7.87438C16.561 7.86278 17.2885 8.57121 17.3001 9.44457L17.3002 9.45499L17.2998 14.9797C17.2998 15.4112 16.95 15.7609 16.5185 15.7609C16.0871 15.7609 15.7373 15.4111 15.7373 14.9796L15.7377 9.46448C15.7374 9.46219 15.7357 9.45554 15.7269 9.44701C15.7192 9.43951 15.7132 9.43751 15.7103 9.43692V9.43692Z" fill="white"/>
</svg>
